# Blender v2.91.2 OBJ File: ''
# www.blender.org
mtllib printer.mtl
o printer_low_meshId0_name.001
v -0.591477 0.322321 0.068786
v 0.591477 0.322321 0.068786
v -0.591477 0.322321 -0.535790
v 0.591477 0.322321 -0.535790
v -0.591477 -0.322321 -0.535790
v -0.591477 0.083445 -0.535790
v 0.591477 -0.322321 -0.535790
v 0.591477 0.083445 -0.535790
v -0.591477 -0.322321 0.068786
v -0.591477 -0.322321 -0.535790
v 0.591477 -0.322321 0.068786
v 0.591477 -0.322321 -0.535790
v -0.569945 0.061913 0.555569
v -0.517961 0.083445 0.562071
v -0.591477 0.083445 0.562071
v 0.569945 0.061913 0.555569
v 0.591477 0.083445 0.562071
v 0.517961 0.083445 0.562071
v 0.591477 0.292633 0.562071
v -0.591477 0.292633 0.562071
v 0.591477 0.292633 -0.535790
v -0.591477 0.292633 -0.535790
v -0.591477 0.292633 0.562071
v 0.591477 0.292633 0.562071
v -0.591477 0.292633 0.068786
v 0.591477 0.292633 0.068786
v -0.591477 0.009929 0.341289
v -0.591477 0.009929 0.539872
v -0.591477 -0.276824 0.341289
v -0.591477 -0.322321 0.439545
v 0.591477 -0.322321 0.439545
v 0.591477 0.009929 0.539872
v 0.591477 -0.276824 0.341289
v 0.591477 0.009929 0.341289
v 0.517961 0.083445 0.341289
v 0.517961 0.083445 0.562071
v -0.517961 0.083445 0.341289
v -0.517961 0.083445 0.562071
v -0.591477 -0.322321 0.068786
v -0.591477 -0.276824 0.341289
v -0.591477 -0.322321 0.068786
v 0.591477 -0.276824 0.341289
v 0.591477 -0.322321 0.068786
v 0.591477 -0.322321 0.068786
v -0.591477 0.292633 0.068786
v 0.591477 0.292633 0.068786
v -0.591477 0.322321 0.068786
v 0.591477 0.322321 0.068786
v 0.591477 0.292633 0.068786
v 0.591477 0.292633 -0.535790
v 0.591477 0.322321 0.068786
v 0.591477 0.322321 -0.535790
v 0.591477 0.292633 -0.535790
v -0.591477 0.292633 -0.535790
v 0.591477 0.322321 -0.535790
v -0.591477 0.322321 -0.535790
v -0.591477 0.292633 -0.535790
v -0.591477 0.292633 0.068786
v -0.591477 0.322321 -0.535790
v -0.591477 0.322321 0.068786
v -0.968816 0.088050 0.530887
v -0.968816 0.292633 0.530887
v -1.000000 0.099169 0.455602
v -1.000000 0.292633 0.455602
v -0.893531 0.083445 0.562071
v -0.893531 0.292633 0.562071
v 0.968816 -0.322321 0.406971
v 0.968816 0.088050 0.530887
v 0.893531 -0.322321 0.439545
v 0.893531 0.083445 0.562071
v 1.000000 -0.322321 0.328329
v 1.000000 0.099169 0.455602
v -1.000000 0.083445 -0.429322
v -0.968816 0.083445 -0.504606
v -1.000000 -0.322321 -0.429322
v -0.968816 -0.322321 -0.504606
v -0.893531 0.083445 -0.535790
v -0.893531 -0.322321 -0.535790
v 0.893531 0.292633 -0.535790
v 0.968816 0.292633 -0.504606
v 0.893531 0.083445 -0.535790
v 0.968816 0.083445 -0.504606
v 0.968816 0.292633 -0.504606
v 1.000000 0.292633 -0.429322
v 0.968816 0.083445 -0.504606
v 1.000000 0.083445 -0.429322
v -0.893531 -0.322321 0.439545
v -0.591477 0.009929 0.539872
v -0.591477 -0.322321 0.439545
v 1.000000 -0.322321 0.068786
v 1.000000 -0.322321 -0.429322
v 1.000000 0.083445 0.068786
v -1.000000 0.083445 0.068786
v -1.000000 -0.322321 0.068786
v 0.591477 -0.322321 -0.562071
v 0.591477 0.083445 -0.562071
v 0.893531 -0.322321 -0.562071
v 0.893531 0.083445 -0.562071
v 0.591477 0.009929 0.539872
v 0.591477 -0.322321 0.439545
v -1.000000 0.292633 -0.429322
v -1.000000 0.292633 0.068786
v -0.893531 0.292633 -0.535790
v 1.000000 0.292633 0.068786
v 0.893531 0.292633 0.562071
v -1.000000 -0.322321 0.328329
v 1.000000 0.292633 0.455602
v -1.000000 -0.322321 0.068786
v -1.000000 -0.322321 0.328329
v -0.591477 -0.322321 0.439545
v -0.893531 -0.322321 0.439545
v -0.968816 -0.322321 0.406971
v 0.591477 -0.322321 0.439545
v 0.893531 -0.322321 0.439545
v 0.968816 -0.322321 0.406971
v 1.000000 -0.322321 0.328329
v 1.000000 -0.322321 0.068786
v -1.000000 0.292633 0.068786
v -1.000000 0.292633 -0.429322
v -0.591477 0.292633 -0.535790
v -0.893531 0.292633 -0.535790
v -0.968816 0.292633 -0.504606
v 0.591477 0.292633 -0.535790
v 0.893531 0.292633 -0.535790
v 0.968816 0.292633 -0.504606
v 1.000000 0.292633 -0.429322
v 1.000000 0.292633 0.068786
v -0.893531 0.292633 0.562071
v -0.968816 0.292633 0.530887
v -1.000000 0.292633 0.455602
v -0.893531 -0.322321 -0.535790
v -0.968816 -0.322321 -0.504606
v -1.000000 -0.322321 -0.429322
v 1.000000 -0.322321 -0.429322
v 0.893531 -0.322321 -0.535790
v 0.968816 -0.322321 -0.504606
v 1.000000 0.292633 0.455602
v 0.893531 0.292633 0.562071
v 0.968816 0.292633 0.530887
v -0.968816 -0.322321 0.406971
v 0.968816 0.292633 0.530887
v -0.968816 0.292633 -0.504606
v 0.893531 -0.322321 -0.535790
v 0.968816 -0.322321 -0.504606
v 0.968816 -0.322321 -0.504606
v -0.569945 0.061913 0.555569
v -0.569945 0.061913 0.341289
v 0.569945 0.061913 0.555569
v 0.569945 0.061913 0.341289
v -0.591477 -0.276824 0.341289
v 0.591477 -0.276824 0.341289
v -0.591477 0.009929 0.341289
v 0.591477 0.009929 0.341289
v -0.569945 0.061913 0.341289
v -0.517961 0.083445 0.341289
v 0.569945 0.061913 0.341289
v 0.517961 0.083445 0.341289
v 0.591477 -0.322321 -0.535790
v 0.591477 0.083445 -0.535790
v 0.591477 -0.322321 -0.562071
v 0.591477 0.083445 -0.562071
v 0.591477 0.083445 -0.535790
v 0.893531 0.083445 -0.535790
v 0.591477 0.083445 -0.562071
v 0.893531 0.083445 -0.562071
v 0.893531 0.083445 -0.535790
v 0.893531 -0.322321 -0.535790
v 0.893531 0.083445 -0.562071
v 0.893531 -0.322321 -0.562071
v 0.893531 -0.322321 -0.535790
v 0.591477 -0.322321 -0.535790
v 0.893531 -0.322321 -0.562071
v 0.591477 -0.322321 -0.562071
vt 0.887832 0.658527
vt 0.887801 0.843734
vt 0.793178 0.658511
vt 0.793146 0.843718
vt 0.059268 0.714066
vt 0.122391 0.721325
vt 0.038176 0.898126
vt 0.101307 0.905357
vt 0.535252 0.118166
vt 0.629907 0.118170
vt 0.535244 0.303373
vt 0.629899 0.303377
vt 0.176017 0.439253
vt 0.142597 0.429687
vt 0.133270 0.267723
vt 0.133852 0.909081
vt 0.154937 0.725062
vt 0.478200 0.678243
vt 0.663407 0.678252
vt 0.478197 0.755473
vt 0.663404 0.755482
vt 0.830061 0.357278
vt 0.772014 0.357275
vt 0.814678 0.350154
vt 0.758276 0.299147
vt 0.715022 0.299144
vt 0.758287 0.113940
vt 0.715033 0.113937
vt 0.772032 0.055814
vt 0.830079 0.055817
vt 0.814695 0.062939
vt 0.892480 0.658528
vt 0.892449 0.843735
vt 0.887832 0.658527
vt 0.887801 0.843734
vt 0.788482 0.938372
vt 0.788498 0.843717
vt 0.793130 0.938373
vt 0.793146 0.843718
vt 0.788498 0.843717
vt 0.788530 0.658510
vt 0.793146 0.843718
vt 0.793178 0.658511
vt 0.788530 0.658510
vt 0.788545 0.563856
vt 0.793178 0.658511
vt 0.793194 0.563856
vt 0.389499 0.255061
vt 0.266312 0.255080
vt 0.389485 0.163360
vt 0.266298 0.163380
vt 0.535255 0.054206
vt 0.494620 0.054204
vt 0.477205 0.118163
vt 0.477207 0.070873
vt 0.482307 0.059086
vt 0.477197 0.303370
vt 0.477195 0.350661
vt 0.482294 0.362448
vt 0.494607 0.367331
vt 0.535241 0.367332
vt 0.414237 0.755470
vt 0.414233 0.833456
vt 0.478192 0.850128
vt 0.430902 0.850125
vt 0.419115 0.845243
vt 0.663399 0.850136
vt 0.710690 0.850138
vt 0.722477 0.845257
vt 0.727360 0.833470
vt 0.727364 0.755485
vt 0.430910 0.678241
vt 0.419123 0.683122
vt 0.414240 0.694909
vt 0.629909 0.070879
vt 0.625027 0.059092
vt 0.613240 0.054209
vt 0.613227 0.367336
vt 0.629897 0.350668
vt 0.625014 0.362454
vt 0.727366 0.694924
vt 0.710698 0.678254
vt 0.722485 0.683137
vt 0.758276 0.299147
vt 0.758287 0.113940
vt 0.803171 0.299150
vt 0.803182 0.113942
vt 0.811310 0.295779
vt 0.814682 0.287640
vt 0.811321 0.117314
vt 0.814691 0.125453
vt 0.258353 0.378268
vt 0.258334 0.255082
vt 0.266331 0.378267
vt 0.266312 0.255080
vt 0.258334 0.255082
vt 0.258320 0.163381
vt 0.266312 0.255080
vt 0.266298 0.163380
vt 0.258320 0.163381
vt 0.258300 0.040194
vt 0.266298 0.163380
vt 0.266279 0.040193
vt 0.397463 0.163359
vt 0.397477 0.255060
vt 0.389485 0.163360
vt 0.389499 0.255061
vt 0.139333 0.438169
vt 0.143233 0.441201
vt 0.129084 0.259692
vt 0.132608 0.256233
vt 0.165383 0.254392
vt 0.814681 0.305259
vt 0.845772 0.305261
vt 0.845783 0.107836
vt 0.814692 0.107834
vt 0.814691 0.125453
vt 0.849258 0.125455
vt 0.814682 0.287640
vt 0.849248 0.287642
vt 0.148646 0.500066
vt 0.180091 0.500753
vt 0.149241 0.512496
vt 0.179199 0.514298
vt 0.147673 0.487784
vt 0.180211 0.487104
vt 0.064612 0.194991
vt 0.131178 0.197135
vt 0.065674 0.208043
vt 0.131634 0.209448
vt 0.061640 0.181893
vt 0.130330 0.184718
vt 0.130757 0.649025
vt 0.129281 0.661688
vt 0.067581 0.641625
vt 0.066124 0.654327
vt 0.127811 0.674356
vt 0.064666 0.667024
vt 0.128480 0.956072
vt 0.127032 0.968750
vt 0.095935 0.952353
vt 0.094487 0.965031
vt 0.125019 0.031250
vt 0.127963 0.043663
vt 0.093128 0.038826
vt 0.096081 0.051240
vt 0.082319 0.496823
vt 0.131200 0.442647
vt 0.076912 0.449554
vt 0.052289 0.142031
vt 0.034202 0.066030
vt 0.114089 0.127019
vt 0.139800 0.571674
vt 0.076680 0.563973
vt 0.120488 0.256187
vt 0.065770 0.255615
vt 0.163325 0.652797
vt 0.172502 0.575333
vt 0.160357 0.678117
vt 0.146165 0.119599
vt 0.164032 0.206364
vt 0.081337 0.523273
vt 0.159879 0.179465
vt 0.082774 0.509914
vt 0.162333 0.192818
vt 0.161836 0.665458
vt 0.032805 0.945143
vt 0.031357 0.957821
vt 0.031250 0.053613
vt 0.848230 0.296452
vt 0.814681 0.296450
vt 0.848240 0.116646
vt 0.814692 0.116644
vn 0.0000 1.0000 0.0000
vn 0.0000 0.0000 -1.0000
vn 0.0000 -1.0000 -0.0000
vn 0.0000 -0.0000 1.0000
vn 1.0000 0.0000 0.0000
vn 0.0000 -0.9863 0.1647
vn -1.0000 0.0000 0.0000
vn 0.0000 -0.2891 0.9573
vn 0.0000 -0.0334 0.9994
vn 0.0000 -0.1461 0.9893
vn 0.9808 -0.1951 0.0000
vn 0.9731 -0.2303 0.0000
vn -0.9731 -0.2303 0.0000
vn -0.9808 -0.1951 0.0000
vn -0.1951 -0.9808 0.0000
vn -0.1877 -0.9822 0.0000
vn 0.1951 -0.9808 0.0000
vn 0.1877 -0.9822 0.0000
vn -0.6924 -0.1054 0.7138
vn -0.7071 0.0000 0.7071
vn -0.9776 -0.0307 0.2082
vn -0.9808 0.0000 0.1951
vn -0.1935 -0.1433 0.9705
vn -0.1951 0.0000 0.9808
vn 0.7406 -0.1942 0.6432
vn 0.6924 -0.1054 0.7138
vn 0.2020 -0.2831 0.9376
vn 0.1935 -0.1433 0.9705
vn 0.9871 -0.0463 0.1533
vn 0.9776 -0.0307 0.2082
vn -0.9808 0.0000 -0.1951
vn -0.7071 0.0000 -0.7071
vn -0.1951 0.0000 -0.9808
vn 0.1951 0.0000 -0.9808
vn 0.3827 0.0000 -0.9239
vn 0.2595 0.0000 -0.9657
vn 0.9239 0.0000 -0.3827
vn 0.9808 0.0000 -0.1951
vn -0.2020 -0.2831 0.9376
vn 0.0000 -0.2890 0.9573
vn 0.1951 0.0000 0.9808
vn -0.9871 -0.0463 0.1533
vn 0.9808 0.0000 0.1951
vn -0.7406 -0.1942 0.6432
vn 0.7071 0.0000 0.7071
vn 0.6681 -0.7440 0.0000
vn 0.7071 -0.7071 0.0000
vn -0.6681 -0.7440 0.0000
vn -0.7071 -0.7071 0.0000
usemtl lambert1.001
s off
f 1/1/1 2/2/1 3/3/1
f 3/3/1 2/2/1 4/4/1
f 5/5/2 6/6/2 7/7/2
f 7/7/2 6/6/2 8/8/2
f 9/9/3 10/10/3 11/11/3
f 11/11/3 10/10/3 12/12/3
f 20/13/4 14/14/4 18/15/4
f 8/8/2 6/6/2 21/16/2
f 21/16/2 6/6/2 22/17/2
f 23/18/1 24/19/1 25/20/1
f 25/20/1 24/19/1 26/21/1
f 30/22/5 39/23/5 29/24/5
f 40/25/6 41/26/6 42/27/6
f 42/27/6 41/26/6 43/28/6
f 44/29/7 31/30/7 33/31/7
f 45/32/4 46/33/4 47/34/4
f 47/34/4 46/33/4 48/35/4
f 49/36/5 50/37/5 51/38/5
f 51/38/5 50/37/5 52/39/5
f 53/40/2 54/41/2 55/42/2
f 55/42/2 54/41/2 56/43/2
f 57/44/7 58/45/7 59/46/7
f 59/46/7 58/45/7 60/47/7
f 95/48/2 96/49/2 97/50/2
f 97/50/2 96/49/2 98/51/2
f 108/52/3 9/9/3 109/53/3
f 110/54/3 111/55/3 9/9/3
f 111/55/3 112/56/3 9/9/3
f 109/53/3 9/9/3 112/56/3
f 113/57/3 11/11/3 114/58/3
f 114/58/3 11/11/3 115/59/3
f 115/59/3 11/11/3 116/60/3
f 11/11/3 117/61/3 116/60/3
f 118/62/1 25/20/1 119/63/1
f 120/64/1 121/65/1 25/20/1
f 121/65/1 122/66/1 25/20/1
f 119/63/1 25/20/1 122/66/1
f 123/67/1 26/21/1 124/68/1
f 124/68/1 26/21/1 125/69/1
f 125/69/1 26/21/1 126/70/1
f 26/21/1 127/71/1 126/70/1
f 23/18/1 25/20/1 128/72/1
f 128/72/1 25/20/1 129/73/1
f 129/73/1 25/20/1 130/74/1
f 25/20/1 118/62/1 130/74/1
f 10/10/3 9/9/3 131/75/3
f 131/75/3 9/9/3 132/76/3
f 132/76/3 9/9/3 133/77/3
f 9/9/3 108/52/3 133/77/3
f 117/61/3 11/11/3 134/78/3
f 12/12/3 135/79/3 11/11/3
f 135/79/3 136/80/3 11/11/3
f 136/80/3 134/78/3 11/11/3
f 127/71/1 26/21/1 137/81/1
f 24/19/1 138/82/1 26/21/1
f 138/82/1 139/83/1 26/21/1
f 139/83/1 137/81/1 26/21/1
f 150/84/4 151/85/4 152/86/4
f 151/85/4 153/87/4 152/86/4
f 152/86/4 153/87/4 154/88/4
f 154/88/4 153/87/4 155/89/4
f 153/87/4 156/90/4 155/89/4
f 157/91/4 155/89/4 156/90/4
f 158/92/7 159/93/7 160/94/7
f 160/94/7 159/93/7 161/95/7
f 162/96/1 163/97/1 164/98/1
f 164/98/1 163/97/1 165/99/1
f 166/100/5 167/101/5 168/102/5
f 168/102/5 167/101/5 169/103/5
f 170/104/3 171/105/3 172/106/3
f 172/106/3 171/105/3 173/107/3
s 1
f 13/108/8 14/14/9 15/109/10
f 16/110/8 17/111/10 18/15/9
f 19/112/4 20/13/4 17/111/10
f 17/111/10 20/13/4 18/15/9
f 15/109/10 14/14/9 20/13/4
f 27/113/11 28/114/12 29/24/5
f 29/24/5 28/114/12 30/22/5
f 31/30/7 32/115/13 33/31/7
f 33/31/7 32/115/13 34/116/14
f 35/117/15 36/118/16 37/119/17
f 37/119/17 36/118/16 38/120/18
f 61/121/19 62/122/20 63/123/21
f 63/123/21 62/122/20 64/124/22
f 65/125/23 66/126/24 61/121/19
f 61/121/19 66/126/24 62/122/20
f 67/127/25 68/128/26 69/129/27
f 69/129/27 68/128/26 70/130/28
f 71/131/29 72/132/30 67/127/25
f 67/127/25 72/132/30 68/128/26
f 73/133/31 74/134/32 75/135/31
f 75/135/31 74/134/32 76/136/32
f 74/134/32 77/137/33 76/136/32
f 76/136/32 77/137/33 78/138/33
f 79/139/34 80/140/35 81/141/36
f 81/141/36 80/140/35 82/142/35
f 83/143/37 84/144/38 85/145/37
f 85/145/37 84/144/38 86/146/38
f 15/109/10 65/125/23 13/108/8
f 65/125/23 87/147/39 13/108/8
f 13/108/8 87/147/39 88/148/40
f 87/147/39 89/149/40 88/148/40
f 77/137/33 6/6/2 78/138/33
f 78/138/33 6/6/2 5/5/2
f 90/150/5 91/151/38 92/152/5
f 92/152/5 91/151/38 86/146/38
f 73/133/31 75/135/31 93/153/7
f 93/153/7 75/135/31 94/154/7
f 17/111/10 16/110/8 70/130/28
f 70/130/28 16/110/8 69/129/27
f 16/110/8 99/155/40 69/129/27
f 99/155/40 100/156/40 69/129/27
f 20/13/4 66/126/24 15/109/10
f 15/109/10 66/126/24 65/125/23
f 73/133/31 93/153/7 101/157/31
f 101/157/31 93/153/7 102/158/7
f 77/137/33 103/159/33 6/6/2
f 6/6/2 103/159/33 22/17/2
f 81/141/36 8/8/2 79/139/34
f 79/139/34 8/8/2 21/16/2
f 92/152/5 86/146/38 104/160/5
f 104/160/5 86/146/38 84/144/38
f 70/130/28 105/161/41 17/111/10
f 17/111/10 105/161/41 19/112/4
f 94/154/7 106/162/42 93/153/7
f 93/153/7 106/162/42 63/123/21
f 93/153/7 63/123/21 102/158/7
f 102/158/7 63/123/21 64/124/22
f 92/152/5 104/160/5 72/132/30
f 72/132/30 104/160/5 107/163/43
f 72/132/30 71/131/29 92/152/5
f 92/152/5 71/131/29 90/150/5
f 106/162/42 140/164/44 63/123/21
f 63/123/21 140/164/44 61/121/19
f 140/164/44 87/147/39 61/121/19
f 61/121/19 87/147/39 65/125/23
f 70/130/28 68/128/26 105/161/41
f 105/161/41 68/128/26 141/165/45
f 68/128/26 72/132/30 141/165/45
f 141/165/45 72/132/30 107/163/43
f 101/157/31 142/166/32 73/133/31
f 73/133/31 142/166/32 74/134/32
f 142/166/32 103/159/33 74/134/32
f 74/134/32 103/159/33 77/137/33
f 81/141/36 82/142/35 143/167/35
f 143/167/35 82/142/35 144/168/35
f 85/145/37 86/146/38 145/169/37
f 145/169/37 86/146/38 91/151/38
f 38/120/18 146/170/46 37/119/17
f 37/119/17 146/170/46 147/171/47
f 146/170/46 28/114/12 147/171/47
f 147/171/47 28/114/12 27/113/11
f 148/172/48 149/173/49 32/115/13
f 32/115/13 149/173/49 34/116/14
f 36/118/16 35/117/15 148/172/48
f 148/172/48 35/117/15 149/173/49
